<mxfile host="Electron" modified="2023-06-12T09:01:14.164Z" agent="Mozilla/5.0 (Windows NT 10.0; Win64; x64) AppleWebKit/537.36 (KHTML, like Gecko) draw.io/21.2.8 Chrome/112.0.5615.165 Electron/24.2.0 Safari/537.36" etag="NRZalI7gbAL5M1QMDdSR" version="21.2.8" type="device">
  <diagram id="C5RBs43oDa-KdzZeNtuy" name="Page-1">
    <mxGraphModel dx="1628" dy="479" grid="1" gridSize="10" guides="1" tooltips="1" connect="1" arrows="1" fold="1" page="1" pageScale="1" pageWidth="827" pageHeight="1169" math="0" shadow="0">
      <root>
        <mxCell id="WIyWlLk6GJQsqaUBKTNV-0" />
        <mxCell id="WIyWlLk6GJQsqaUBKTNV-1" parent="WIyWlLk6GJQsqaUBKTNV-0" />
        <mxCell id="nxO3kpUXnlB7sclZg1Dg-0" style="edgeStyle=orthogonalEdgeStyle;rounded=0;orthogonalLoop=1;jettySize=auto;html=1;entryX=0.008;entryY=0.242;entryDx=0;entryDy=0;entryPerimeter=0;endArrow=open;endFill=0;jumpSize=13;endSize=13;strokeWidth=1;" parent="WIyWlLk6GJQsqaUBKTNV-1" source="9Yggnirqys_y2ko8_a2q-0" target="9Yggnirqys_y2ko8_a2q-25" edge="1">
          <mxGeometry relative="1" as="geometry" />
        </mxCell>
        <mxCell id="9Yggnirqys_y2ko8_a2q-0" value="Person" style="swimlane;fontStyle=1;align=center;verticalAlign=top;childLayout=stackLayout;horizontal=1;startSize=26;horizontalStack=0;resizeParent=1;resizeParentMax=0;resizeLast=0;collapsible=1;marginBottom=0;" parent="WIyWlLk6GJQsqaUBKTNV-1" vertex="1">
          <mxGeometry y="30" width="250" height="164" as="geometry" />
        </mxCell>
        <mxCell id="9Yggnirqys_y2ko8_a2q-1" value="+ &lt;&lt;property&gt;&gt; Vorname: string&#xa;" style="text;strokeColor=none;fillColor=none;align=left;verticalAlign=top;spacingLeft=4;spacingRight=4;overflow=hidden;rotatable=0;points=[[0,0.5],[1,0.5]];portConstraint=eastwest;" parent="9Yggnirqys_y2ko8_a2q-0" vertex="1">
          <mxGeometry y="26" width="250" height="26" as="geometry" />
        </mxCell>
        <mxCell id="9Yggnirqys_y2ko8_a2q-6" value="+&lt;&lt;property&gt;&gt; Nachname: string&#xa;" style="text;strokeColor=none;fillColor=none;align=left;verticalAlign=top;spacingLeft=4;spacingRight=4;overflow=hidden;rotatable=0;points=[[0,0.5],[1,0.5]];portConstraint=eastwest;" parent="9Yggnirqys_y2ko8_a2q-0" vertex="1">
          <mxGeometry y="52" width="250" height="26" as="geometry" />
        </mxCell>
        <mxCell id="9Yggnirqys_y2ko8_a2q-7" value="+&lt;&lt;property&gt;&gt; Geburtsdatum: DateTime&#xa;" style="text;strokeColor=none;fillColor=none;align=left;verticalAlign=top;spacingLeft=4;spacingRight=4;overflow=hidden;rotatable=0;points=[[0,0.5],[1,0.5]];portConstraint=eastwest;" parent="9Yggnirqys_y2ko8_a2q-0" vertex="1">
          <mxGeometry y="78" width="250" height="26" as="geometry" />
        </mxCell>
        <mxCell id="9Yggnirqys_y2ko8_a2q-9" value="+&lt;&lt;property&gt;&gt; Anschrift: Anschrift" style="text;strokeColor=none;fillColor=none;align=left;verticalAlign=top;spacingLeft=4;spacingRight=4;overflow=hidden;rotatable=0;points=[[0,0.5],[1,0.5]];portConstraint=eastwest;" parent="9Yggnirqys_y2ko8_a2q-0" vertex="1">
          <mxGeometry y="104" width="250" height="26" as="geometry" />
        </mxCell>
        <mxCell id="9Yggnirqys_y2ko8_a2q-2" value="" style="line;strokeWidth=1;fillColor=none;align=left;verticalAlign=middle;spacingTop=-1;spacingLeft=3;spacingRight=3;rotatable=0;labelPosition=right;points=[];portConstraint=eastwest;strokeColor=inherit;" parent="9Yggnirqys_y2ko8_a2q-0" vertex="1">
          <mxGeometry y="130" width="250" height="8" as="geometry" />
        </mxCell>
        <mxCell id="9Yggnirqys_y2ko8_a2q-10" value="- GetAlter(): int" style="text;strokeColor=none;fillColor=none;align=left;verticalAlign=top;spacingLeft=4;spacingRight=4;overflow=hidden;rotatable=0;points=[[0,0.5],[1,0.5]];portConstraint=eastwest;" parent="9Yggnirqys_y2ko8_a2q-0" vertex="1">
          <mxGeometry y="138" width="250" height="26" as="geometry" />
        </mxCell>
        <mxCell id="9Yggnirqys_y2ko8_a2q-17" value="Anschrift" style="swimlane;fontStyle=1;align=center;verticalAlign=top;childLayout=stackLayout;horizontal=1;startSize=26;horizontalStack=0;resizeParent=1;resizeParentMax=0;resizeLast=0;collapsible=1;marginBottom=0;" parent="WIyWlLk6GJQsqaUBKTNV-1" vertex="1">
          <mxGeometry x="400" y="30" width="190" height="190" as="geometry" />
        </mxCell>
        <mxCell id="9Yggnirqys_y2ko8_a2q-18" value="+ &lt;&lt;property&gt;&gt; Strasse: string" style="text;strokeColor=none;fillColor=none;align=left;verticalAlign=top;spacingLeft=4;spacingRight=4;overflow=hidden;rotatable=0;points=[[0,0.5],[1,0.5]];portConstraint=eastwest;" parent="9Yggnirqys_y2ko8_a2q-17" vertex="1">
          <mxGeometry y="26" width="190" height="26" as="geometry" />
        </mxCell>
        <mxCell id="9Yggnirqys_y2ko8_a2q-21" value="+&lt;&lt;property&gt;&gt; HausNr: string" style="text;strokeColor=none;fillColor=none;align=left;verticalAlign=top;spacingLeft=4;spacingRight=4;overflow=hidden;rotatable=0;points=[[0,0.5],[1,0.5]];portConstraint=eastwest;" parent="9Yggnirqys_y2ko8_a2q-17" vertex="1">
          <mxGeometry y="52" width="190" height="26" as="geometry" />
        </mxCell>
        <mxCell id="9Yggnirqys_y2ko8_a2q-24" value="+&lt;&lt;property&gt;&gt; Land: string" style="text;strokeColor=none;fillColor=none;align=left;verticalAlign=top;spacingLeft=4;spacingRight=4;overflow=hidden;rotatable=0;points=[[0,0.5],[1,0.5]];portConstraint=eastwest;" parent="9Yggnirqys_y2ko8_a2q-17" vertex="1">
          <mxGeometry y="78" width="190" height="26" as="geometry" />
        </mxCell>
        <mxCell id="9Yggnirqys_y2ko8_a2q-25" value="+&lt;&lt;property&gt;&gt; PLZ: string" style="text;strokeColor=none;fillColor=none;align=left;verticalAlign=top;spacingLeft=4;spacingRight=4;overflow=hidden;rotatable=0;points=[[0,0.5],[1,0.5]];portConstraint=eastwest;" parent="9Yggnirqys_y2ko8_a2q-17" vertex="1">
          <mxGeometry y="104" width="190" height="26" as="geometry" />
        </mxCell>
        <mxCell id="9Yggnirqys_y2ko8_a2q-26" value="+&lt;&lt;property&gt;&gt; Ort: string" style="text;strokeColor=none;fillColor=none;align=left;verticalAlign=top;spacingLeft=4;spacingRight=4;overflow=hidden;rotatable=0;points=[[0,0.5],[1,0.5]];portConstraint=eastwest;" parent="9Yggnirqys_y2ko8_a2q-17" vertex="1">
          <mxGeometry y="130" width="190" height="26" as="geometry" />
        </mxCell>
        <mxCell id="9Yggnirqys_y2ko8_a2q-19" value="" style="line;strokeWidth=1;fillColor=none;align=left;verticalAlign=middle;spacingTop=-1;spacingLeft=3;spacingRight=3;rotatable=0;labelPosition=right;points=[];portConstraint=eastwest;strokeColor=inherit;" parent="9Yggnirqys_y2ko8_a2q-17" vertex="1">
          <mxGeometry y="156" width="190" height="8" as="geometry" />
        </mxCell>
        <mxCell id="9Yggnirqys_y2ko8_a2q-20" value="  " style="text;strokeColor=none;fillColor=none;align=left;verticalAlign=top;spacingLeft=4;spacingRight=4;overflow=hidden;rotatable=0;points=[[0,0.5],[1,0.5]];portConstraint=eastwest;" parent="9Yggnirqys_y2ko8_a2q-17" vertex="1">
          <mxGeometry y="164" width="190" height="26" as="geometry" />
        </mxCell>
        <mxCell id="nxO3kpUXnlB7sclZg1Dg-1" value="contains" style="text;html=1;align=center;verticalAlign=middle;resizable=0;points=[];autosize=1;strokeColor=none;fillColor=none;" parent="WIyWlLk6GJQsqaUBKTNV-1" vertex="1">
          <mxGeometry x="250" y="110" width="70" height="30" as="geometry" />
        </mxCell>
        <mxCell id="P0sR69mKyPlwHJ-o_Sqb-3" value="1" style="edgeLabel;html=1;align=center;verticalAlign=middle;resizable=0;points=[];" parent="WIyWlLk6GJQsqaUBKTNV-1" vertex="1" connectable="0">
          <mxGeometry x="-179.9952133183404" y="779.9969752465703" as="geometry">
            <mxPoint x="354" y="-328" as="offset" />
          </mxGeometry>
        </mxCell>
        <mxCell id="oBlQNSS4-ehlh0f0SvuO-15" style="edgeStyle=orthogonalEdgeStyle;rounded=0;orthogonalLoop=1;jettySize=auto;html=1;entryX=0.532;entryY=1;entryDx=0;entryDy=0;entryPerimeter=0;strokeWidth=1;endArrow=diamond;endFill=0;startSize=10;endSize=21;" parent="WIyWlLk6GJQsqaUBKTNV-1" source="jHgdwYqLtebXFhTLF7C1-0" target="jHgdwYqLtebXFhTLF7C1-11" edge="1">
          <mxGeometry relative="1" as="geometry">
            <Array as="points">
              <mxPoint x="145" y="540" />
              <mxPoint x="145" y="540" />
            </Array>
          </mxGeometry>
        </mxCell>
        <mxCell id="jHgdwYqLtebXFhTLF7C1-0" value="Anwesenheit" style="swimlane;fontStyle=1;align=center;verticalAlign=middle;childLayout=stackLayout;horizontal=1;startSize=29;horizontalStack=0;resizeParent=1;resizeParentMax=0;resizeLast=0;collapsible=0;marginBottom=0;html=1;" parent="WIyWlLk6GJQsqaUBKTNV-1" vertex="1">
          <mxGeometry x="40" y="530" width="250" height="112" as="geometry" />
        </mxCell>
        <mxCell id="jHgdwYqLtebXFhTLF7C1-1" value="+ &amp;lt;&amp;lt;property&amp;gt;&amp;gt; Anwesenheitstag : DateTime" style="text;html=1;strokeColor=none;fillColor=none;align=left;verticalAlign=middle;spacingLeft=4;spacingRight=4;overflow=hidden;rotatable=0;points=[[0,0.5],[1,0.5]];portConstraint=eastwest;" parent="jHgdwYqLtebXFhTLF7C1-0" vertex="1">
          <mxGeometry y="29" width="250" height="25" as="geometry" />
        </mxCell>
        <mxCell id="jHgdwYqLtebXFhTLF7C1-4" value="+ &amp;lt;&amp;lt;property&amp;gt;&amp;gt; Grund : String" style="text;html=1;strokeColor=none;fillColor=none;align=left;verticalAlign=middle;spacingLeft=4;spacingRight=4;overflow=hidden;rotatable=0;points=[[0,0.5],[1,0.5]];portConstraint=eastwest;" parent="jHgdwYqLtebXFhTLF7C1-0" vertex="1">
          <mxGeometry y="54" width="250" height="25" as="geometry" />
        </mxCell>
        <mxCell id="jHgdwYqLtebXFhTLF7C1-5" value="" style="line;strokeWidth=1;fillColor=none;align=left;verticalAlign=middle;spacingTop=-1;spacingLeft=3;spacingRight=3;rotatable=0;labelPosition=right;points=[];portConstraint=eastwest;strokeColor=inherit;" parent="jHgdwYqLtebXFhTLF7C1-0" vertex="1">
          <mxGeometry y="79" width="250" height="8" as="geometry" />
        </mxCell>
        <mxCell id="jHgdwYqLtebXFhTLF7C1-3" style="text;html=1;strokeColor=none;fillColor=none;align=left;verticalAlign=middle;spacingLeft=4;spacingRight=4;overflow=hidden;rotatable=0;points=[[0,0.5],[1,0.5]];portConstraint=eastwest;" parent="jHgdwYqLtebXFhTLF7C1-0" vertex="1">
          <mxGeometry y="87" width="250" height="25" as="geometry" />
        </mxCell>
        <mxCell id="jHgdwYqLtebXFhTLF7C1-19" value="" style="edgeStyle=orthogonalEdgeStyle;rounded=0;orthogonalLoop=1;jettySize=auto;html=1;strokeWidth=1;endArrow=block;endFill=0;endSize=13;exitX=0.5;exitY=0;exitDx=0;exitDy=0;entryX=0.508;entryY=0.98;entryDx=0;entryDy=0;entryPerimeter=0;" parent="WIyWlLk6GJQsqaUBKTNV-1" source="jHgdwYqLtebXFhTLF7C1-7" target="9Yggnirqys_y2ko8_a2q-10" edge="1">
          <mxGeometry relative="1" as="geometry">
            <mxPoint x="115.5" y="249.69999999999993" as="targetPoint" />
            <Array as="points">
              <mxPoint x="135" y="330" />
              <mxPoint x="116" y="330" />
              <mxPoint x="116" y="310" />
              <mxPoint x="127" y="310" />
            </Array>
          </mxGeometry>
        </mxCell>
        <mxCell id="jHgdwYqLtebXFhTLF7C1-7" value="Patient" style="swimlane;fontStyle=1;align=center;verticalAlign=middle;childLayout=stackLayout;horizontal=1;startSize=29;horizontalStack=0;resizeParent=1;resizeParentMax=0;resizeLast=0;collapsible=0;marginBottom=0;html=1;" parent="WIyWlLk6GJQsqaUBKTNV-1" vertex="1">
          <mxGeometry x="-20" y="300" width="310" height="112" as="geometry" />
        </mxCell>
        <mxCell id="jHgdwYqLtebXFhTLF7C1-8" value="+ &amp;lt;&amp;lt;property&amp;gt;&amp;gt; PatientenNr: int" style="text;html=1;strokeColor=none;fillColor=none;align=left;verticalAlign=middle;spacingLeft=4;spacingRight=4;overflow=hidden;rotatable=0;points=[[0,0.5],[1,0.5]];portConstraint=eastwest;" parent="jHgdwYqLtebXFhTLF7C1-7" vertex="1">
          <mxGeometry y="29" width="310" height="25" as="geometry" />
        </mxCell>
        <mxCell id="jHgdwYqLtebXFhTLF7C1-9" value="+ &amp;lt;&amp;lt;property&amp;gt;&amp;gt; Anwesenheitstage : List&amp;lt;Anwesenheit&amp;gt;" style="text;html=1;strokeColor=none;fillColor=none;align=left;verticalAlign=middle;spacingLeft=4;spacingRight=4;overflow=hidden;rotatable=0;points=[[0,0.5],[1,0.5]];portConstraint=eastwest;" parent="jHgdwYqLtebXFhTLF7C1-7" vertex="1">
          <mxGeometry y="54" width="310" height="25" as="geometry" />
        </mxCell>
        <mxCell id="jHgdwYqLtebXFhTLF7C1-10" value="" style="line;strokeWidth=1;fillColor=none;align=left;verticalAlign=middle;spacingTop=-1;spacingLeft=3;spacingRight=3;rotatable=0;labelPosition=right;points=[];portConstraint=eastwest;strokeColor=inherit;" parent="jHgdwYqLtebXFhTLF7C1-7" vertex="1">
          <mxGeometry y="79" width="310" height="8" as="geometry" />
        </mxCell>
        <mxCell id="jHgdwYqLtebXFhTLF7C1-11" value="&lt;i&gt;&amp;nbsp; &amp;nbsp;&lt;/i&gt;" style="text;html=1;strokeColor=none;fillColor=none;align=left;verticalAlign=middle;spacingLeft=4;spacingRight=4;overflow=hidden;rotatable=0;points=[[0,0.5],[1,0.5]];portConstraint=eastwest;" parent="jHgdwYqLtebXFhTLF7C1-7" vertex="1">
          <mxGeometry y="87" width="310" height="25" as="geometry" />
        </mxCell>
        <mxCell id="jHgdwYqLtebXFhTLF7C1-12" value="Praxis" style="swimlane;fontStyle=1;align=center;verticalAlign=middle;childLayout=stackLayout;horizontal=1;startSize=29;horizontalStack=0;resizeParent=1;resizeParentMax=0;resizeLast=0;collapsible=0;marginBottom=0;html=1;" parent="WIyWlLk6GJQsqaUBKTNV-1" vertex="1">
          <mxGeometry x="420" y="330" width="310" height="137" as="geometry" />
        </mxCell>
        <mxCell id="X41YDVkLboifw5gvEPpO-11" value="+ &amp;lt;&amp;lt;property&amp;gt;&amp;gt; Praxisname: string" style="text;html=1;strokeColor=none;fillColor=none;align=left;verticalAlign=middle;spacingLeft=4;spacingRight=4;overflow=hidden;rotatable=0;points=[[0,0.5],[1,0.5]];portConstraint=eastwest;" vertex="1" parent="jHgdwYqLtebXFhTLF7C1-12">
          <mxGeometry y="29" width="310" height="25" as="geometry" />
        </mxCell>
        <mxCell id="X41YDVkLboifw5gvEPpO-12" value="+ &amp;lt;&amp;lt;property&amp;gt;&amp;gt; Anschrift: Anschrift" style="text;html=1;strokeColor=none;fillColor=none;align=left;verticalAlign=middle;spacingLeft=4;spacingRight=4;overflow=hidden;rotatable=0;points=[[0,0.5],[1,0.5]];portConstraint=eastwest;" vertex="1" parent="jHgdwYqLtebXFhTLF7C1-12">
          <mxGeometry y="54" width="310" height="25" as="geometry" />
        </mxCell>
        <mxCell id="X41YDVkLboifw5gvEPpO-13" value="+ &amp;lt;&amp;lt;property&amp;gt;&amp;gt; Patienten: List&amp;lt;Patient&amp;gt;" style="text;html=1;strokeColor=none;fillColor=none;align=left;verticalAlign=middle;spacingLeft=4;spacingRight=4;overflow=hidden;rotatable=0;points=[[0,0.5],[1,0.5]];portConstraint=eastwest;" vertex="1" parent="jHgdwYqLtebXFhTLF7C1-12">
          <mxGeometry y="79" width="310" height="25" as="geometry" />
        </mxCell>
        <mxCell id="jHgdwYqLtebXFhTLF7C1-15" value="" style="line;strokeWidth=1;fillColor=none;align=left;verticalAlign=middle;spacingTop=-1;spacingLeft=3;spacingRight=3;rotatable=0;labelPosition=right;points=[];portConstraint=eastwest;strokeColor=inherit;" parent="jHgdwYqLtebXFhTLF7C1-12" vertex="1">
          <mxGeometry y="104" width="310" height="8" as="geometry" />
        </mxCell>
        <mxCell id="X41YDVkLboifw5gvEPpO-14" value="&amp;nbsp;&amp;nbsp;" style="text;html=1;strokeColor=none;fillColor=none;align=left;verticalAlign=middle;spacingLeft=4;spacingRight=4;overflow=hidden;rotatable=0;points=[[0,0.5],[1,0.5]];portConstraint=eastwest;" vertex="1" parent="jHgdwYqLtebXFhTLF7C1-12">
          <mxGeometry y="112" width="310" height="25" as="geometry" />
        </mxCell>
        <mxCell id="oBlQNSS4-ehlh0f0SvuO-9" value="1..*" style="text;strokeColor=none;fillColor=none;align=left;verticalAlign=middle;spacingLeft=4;spacingRight=4;overflow=hidden;points=[[0,0.5],[1,0.5]];portConstraint=eastwest;rotatable=0;" parent="WIyWlLk6GJQsqaUBKTNV-1" vertex="1">
          <mxGeometry x="160" y="500" width="40" height="30" as="geometry" />
        </mxCell>
        <mxCell id="oBlQNSS4-ehlh0f0SvuO-14" style="edgeStyle=orthogonalEdgeStyle;rounded=0;orthogonalLoop=1;jettySize=auto;html=1;entryX=-0.002;entryY=0.294;entryDx=0;entryDy=0;entryPerimeter=0;strokeWidth=1;endArrow=diamond;endFill=0;startSize=10;endSize=21;exitX=1;exitY=0.5;exitDx=0;exitDy=0;" parent="WIyWlLk6GJQsqaUBKTNV-1" source="jHgdwYqLtebXFhTLF7C1-9" edge="1">
          <mxGeometry relative="1" as="geometry">
            <mxPoint x="300" y="391" as="sourcePoint" />
            <Array as="points">
              <mxPoint x="290" y="390" />
              <mxPoint x="345" y="390" />
              <mxPoint x="345" y="391" />
            </Array>
            <mxPoint x="419.3799999999999" y="391.3499999999999" as="targetPoint" />
          </mxGeometry>
        </mxCell>
        <mxCell id="wILQS419StuPn1y6B4lR-1" value="1..*" style="edgeLabel;html=1;align=right;verticalAlign=middle;resizable=0;points=[];" parent="oBlQNSS4-ehlh0f0SvuO-14" vertex="1" connectable="0">
          <mxGeometry x="0.033" relative="1" as="geometry">
            <mxPoint x="-25" y="-17" as="offset" />
          </mxGeometry>
        </mxCell>
        <mxCell id="wILQS419StuPn1y6B4lR-2" value="1" style="edgeLabel;html=1;align=center;verticalAlign=middle;resizable=0;points=[];" parent="oBlQNSS4-ehlh0f0SvuO-14" vertex="1" connectable="0">
          <mxGeometry x="0.0929" y="-1" relative="1" as="geometry">
            <mxPoint x="50" y="-22" as="offset" />
          </mxGeometry>
        </mxCell>
        <mxCell id="oBlQNSS4-ehlh0f0SvuO-16" style="edgeStyle=orthogonalEdgeStyle;rounded=0;orthogonalLoop=1;jettySize=auto;html=1;entryX=0.53;entryY=0.985;entryDx=0;entryDy=0;entryPerimeter=0;endArrow=open;endFill=0;jumpSize=13;endSize=13;strokeWidth=1;exitX=0.194;exitY=-0.002;exitDx=0;exitDy=0;exitPerimeter=0;" parent="WIyWlLk6GJQsqaUBKTNV-1" source="jHgdwYqLtebXFhTLF7C1-12" target="9Yggnirqys_y2ko8_a2q-20" edge="1">
          <mxGeometry relative="1" as="geometry">
            <mxPoint x="500" y="320" as="sourcePoint" />
            <mxPoint x="500.1300000000001" y="249.07000000000005" as="targetPoint" />
            <Array as="points">
              <mxPoint x="501" y="330" />
            </Array>
          </mxGeometry>
        </mxCell>
        <mxCell id="oBlQNSS4-ehlh0f0SvuO-17" value="contains" style="text;html=1;align=center;verticalAlign=middle;resizable=0;points=[];autosize=1;strokeColor=none;fillColor=none;" parent="WIyWlLk6GJQsqaUBKTNV-1" vertex="1">
          <mxGeometry x="500" y="280" width="70" height="30" as="geometry" />
        </mxCell>
      </root>
    </mxGraphModel>
  </diagram>
</mxfile>
